<?xml version="1.0" encoding="UTF-8"?>
<svg version="1.1" xmlns="http://www.w3.org/2000/svg" width="180" height="180">
<path d="M0 0 C2.02107544 0.02149041 4.03859952 0.00003039 6.05957031 -0.02539062 C18.6068688 -0.05369523 30.33664477 2.62852922 41.64550781 8.14648438 C42.34933594 8.48494385 43.05316406 8.82340332 43.77832031 9.17211914 C66.26907096 20.43532002 81.46189057 40.71314713 89.45800781 64.20898438 C91.94303485 72.08752302 92.26985786 79.53897889 92.31567383 87.74658203 C92.32708629 89.16204917 92.3473637 90.57747706 92.37719727 91.99267578 C92.66098478 105.49715628 90.65720125 117.8289424 84.14550781 129.89648438 C83.79673584 130.56437988 83.44796387 131.23227539 83.08862305 131.92041016 C72.8877063 151.16150617 57.96863386 165.36378751 38.08300781 174.27148438 C37.46361328 174.55314453 36.84421875 174.83480469 36.20605469 175.125 C25.79117571 179.60992733 15.54688086 181.03852039 4.26733398 180.9675293 C2.21983521 180.95903345 0.17515437 180.98787693 -1.87207031 181.01953125 C-14.48055597 181.08797137 -26.20357712 178.45935465 -37.60449219 172.89648438 C-38.30832031 172.5580249 -39.01214844 172.21956543 -39.73730469 171.87084961 C-62.22805534 160.60764873 -77.42087495 140.32982162 -85.41699219 116.83398438 C-87.90201923 108.95544573 -88.22884224 101.50398986 -88.2746582 93.29638672 C-88.28607067 91.88091958 -88.30634808 90.46549169 -88.33618164 89.05029297 C-88.61996915 75.54581247 -86.61618563 63.21402635 -80.10449219 51.14648438 C-79.75572021 50.47858887 -79.40694824 49.81069336 -79.04760742 49.12255859 C-67.44640501 27.24022635 -49.20441509 11.29966936 -25.6015625 3.3894043 C-17.01844031 0.93733708 -8.95751659 -0.11267316 0 0 Z " fill="#FCFDFD" transform="translate(87.9794921875,-0.521484375)"/>
<path d="M0 0 C6.9640204 4.16075387 11.7938458 9.49382724 15 17 C15 18.32 15 19.64 15 21 C16.010625 20.938125 17.02125 20.87625 18.0625 20.8125 C25.20791908 21.15275805 31.50654615 24.58323172 36.6015625 29.56640625 C43.20751951 36.83946729 44.59177701 42.80677076 44.34375 52.5625 C43.50011463 60.99885374 39.18045368 67.33790695 33 73 C29.5625 75 29.5625 75 27 76 C28.31838215 79.58482332 29.90651732 82.59341137 32.0390625 85.7578125 C32.61914062 86.63050781 33.19921875 87.50320312 33.796875 88.40234375 C35.0216689 90.22644919 36.2482499 92.04935587 37.4765625 93.87109375 C38.0540625 94.74121094 38.6315625 95.61132812 39.2265625 96.5078125 C39.75846191 97.29816895 40.29036133 98.08852539 40.83837891 98.90283203 C42 101 42 101 42 104 C25.98497305 106.21974193 25.98497305 106.21974193 21.21533203 102.67285156 C18.11711668 99.1520141 16.01010083 95.0832483 13.95947266 90.88964844 C12.65653608 88.3235596 11.04376242 86.02760362 9.375 83.6875 C7 80.24309392 7 80.24309392 7 78 C-6.86 78 -20.72 78 -35 78 C-35 86.58 -35 95.16 -35 104 C-40.61 104 -46.22 104 -52 104 C-52.09216383 99.69390106 -52.1716866 95.39126281 -52.21972656 91.08496094 C-52.23976332 89.62227748 -52.26700104 88.15967334 -52.30175781 86.69726562 C-52.35063225 84.5870399 -52.37304659 82.47787864 -52.390625 80.3671875 C-52.41157227 79.09987793 -52.43251953 77.83256836 -52.45410156 76.52685547 C-51.7295593 70.89957719 -48.50825059 66.43116475 -44.02734375 62.93997192 C-39.24961863 60.72479383 -33.65280518 61.36633554 -28.5 61.43359375 C-26.499876 61.42498446 -24.49975183 61.41635365 -22.49963379 61.40645695 C-18.99967086 61.39616086 -15.49990693 61.41899474 -12 61.4375 C-7.82214232 61.45574811 -3.64466829 61.46621969 0.53320312 61.44776917 C3.13086157 61.43848639 5.7286671 61.44766145 8.32617188 61.47740173 C16.98818615 61.50773387 16.98818615 61.50773387 24 57 C26.71560503 52.92659245 26.3854983 49.76844633 26 45 C25.5666741 42.07488547 25.5666741 42.07488547 24 40 C18.31048312 37.54239803 13.30636565 38.03325207 7.2421875 38.41796875 C4 38 4 38 1.63671875 35.80078125 C0.01862147 33.03186537 -0.63465949 31.14733252 -1.0625 28 C-2.0621676 22.2900342 -3.27834044 19.35534902 -7.9375 15.6875 C-13.00187812 13.07466798 -18.47424429 12.9966785 -24 14 C-28.35041289 16.33326643 -31.11384665 19.45302318 -33 24 C-33.50745109 26.51309113 -33.87857665 29.02496047 -34.2421875 31.5625 C-35.23323962 34.75021402 -36.2790876 36.05842178 -39 38 C-42.2421875 38.21484375 -42.2421875 38.21484375 -45.875 37.9375 C-51.81239172 37.62690394 -51.81239172 37.62690394 -56.8125 40.375 C-59.88682157 44.06418589 -60.26911549 46.15544675 -60.234375 50.984375 C-59.90837878 53.78794252 -58.46502019 55.61934219 -57 58 C-56.36848801 62.42058395 -56.4756169 64.25315134 -59.0625 67.9375 C-62 70 -62 70 -65.5 70.625 C-70.09653239 69.80419064 -71.25470586 68.78405408 -74 65 C-78.15155784 56.5612125 -79.42114455 48.56822161 -77 39.4375 C-73.81816034 31.07592135 -67.43108167 25.41682898 -59.41015625 21.796875 C-56.05691257 20.68818503 -53.49587798 20.62001326 -50 21 C-49.7525 19.96875 -49.505 18.9375 -49.25 17.875 C-46.97825951 10.07274646 -41.33650451 3.84337528 -34.62890625 -0.5546875 C-23.67923475 -6.31424725 -10.85934469 -5.72707224 0 0 Z " fill="#245B5F" transform="translate(107,39)"/>
<path d="M0 0 C7.44685885 4.44923263 12.91142574 10.60692514 15.640625 18.9609375 C16.60198408 24.41560534 16.89336622 30.05789952 14.5625 35.125 C12.18154762 37.98214286 12.18154762 37.98214286 8.1875 38.375 C4.99678918 38.30650531 4.22658125 38.17887993 1.625 36.125 C-0.24034541 32.53779728 -0.83137803 29.32013735 -1.5234375 25.3671875 C-2.4675021 20.67781746 -4.21922293 18.61465429 -7.9375 15.6875 C-13.00187812 13.07466798 -18.47424429 12.9966785 -24 14 C-28.35041289 16.33326643 -31.11384665 19.45302318 -33 24 C-33.50745109 26.51309113 -33.87857665 29.02496047 -34.2421875 31.5625 C-35.23323962 34.75021402 -36.2790876 36.05842178 -39 38 C-42.2421875 38.21484375 -42.2421875 38.21484375 -45.875 37.9375 C-51.81239172 37.62690394 -51.81239172 37.62690394 -56.8125 40.375 C-59.88682157 44.06418589 -60.26911549 46.15544675 -60.234375 50.984375 C-59.90837878 53.78794252 -58.46502019 55.61934219 -57 58 C-56.36848801 62.42058395 -56.4756169 64.25315134 -59.0625 67.9375 C-62 70 -62 70 -65.5 70.625 C-70.09653239 69.80419064 -71.25470586 68.78405408 -74 65 C-78.15155784 56.5612125 -79.42114455 48.56822161 -77 39.4375 C-73.81816034 31.07592135 -67.43108167 25.41682898 -59.41015625 21.796875 C-56.05691257 20.68818503 -53.49587798 20.62001326 -50 21 C-49.7525 19.96875 -49.505 18.9375 -49.25 17.875 C-46.97825951 10.07274646 -41.33650451 3.84337528 -34.62890625 -0.5546875 C-23.67923475 -6.31424725 -10.85934469 -5.72707224 0 0 Z " fill="#285F63" transform="translate(107,39)"/>
<path d="M0 0 C3.27062653 4.31658988 6.28871374 8.74730238 9.21875 13.30078125 C9.81623047 14.20699219 10.41371094 15.11320312 11.02929688 16.046875 C11.59326172 16.91699219 12.15722656 17.78710938 12.73828125 18.68359375 C13.50748901 19.86912842 13.50748901 19.86912842 14.29223633 21.07861328 C15.40625 23.17578125 15.40625 23.17578125 15.40625 26.17578125 C-0.616518 28.39659612 -0.616518 28.39659612 -5.39453125 24.83251953 C-8.50757454 21.30018068 -10.63937252 17.23272873 -12.68164062 13.01367188 C-13.83879548 10.68201723 -15.25040932 8.57181762 -16.71875 6.42578125 C-18.59375 3.17578125 -18.59375 3.17578125 -18.59375 0.17578125 C-16.03341242 -0.29657245 -13.47674566 -0.72731866 -10.90625 -1.13671875 C-9.8244043 -1.34264648 -9.8244043 -1.34264648 -8.72070312 -1.55273438 C-5.02059672 -2.11028466 -3.10127242 -2.181166 0 0 Z " fill="#19494D" transform="translate(133.59375,116.82421875)"/>
<path d="M0 0 C0 8.25 0 16.5 0 25 C-5.28 25 -10.56 25 -16 25 C-16.9375 10 -16.9375 10 -12.8125 5.1875 C-8.67262702 1.33975515 -5.68877713 0 0 0 Z " fill="#09363A" transform="translate(72,117)"/>
</svg>
